<!DOCTYPE svg PUBLIC "-//W3C//DTD SVG 1.1//EN" "http://www.w3.org/Graphics/SVG/1.1/DTD/svg11.dtd">
<!-- Uploaded to: SVG Repo, www.svgrepo.com, Transformed by: SVG Repo Mixer Tools -->
<svg height="256px" width="256px" version="1.1" id="Layer_1" xmlns="http://www.w3.org/2000/svg" xmlns:xlink="http://www.w3.org/1999/xlink" viewBox="-102.4 -102.4 716.80 716.80" xml:space="preserve" fill="#000000">
<g id="SVGRepo_bgCarrier" stroke-width="0" transform="translate(0,0), scale(1)">
<rect x="-102.4" y="-102.4" width="716.80" height="716.80" rx="358.4" fill="#181b1a" strokewidth="0"/>
</g>
<g id="SVGRepo_tracerCarrier" stroke-linecap="round" stroke-linejoin="round" stroke="#CCCCCC" stroke-width="4.096"/>
<g id="SVGRepo_iconCarrier"> <path style="fill:#f09ab7;" d="M469.344,266.664v-85.328h-42.656v-42.672H384v-21.328h42.688v-64h-64v42.656H320v42.672H192V95.992 h-42.656V53.336h-64v64H128v21.328H85.344v42.672H42.688v85.328H0v149.328h64v-85.328h21.344v85.328H128v42.672h106.688v-64h-85.344 v-21.328h213.344v21.328h-85.344v64H384v-42.672h42.688v-85.328H448v85.328h64V266.664H469.344z M192,245.336h-64v-64h64V245.336z M384,245.336h-64v-64h64V245.336z"/> </g>
</svg>